<svg xmlns="http://www.w3.org/2000/svg" width="305" height="65"><g fill="none"><g transform="translate(80)"><circle cx="32.637" cy="32.806" r="28.276" fill="none"/><path fill="currentColor" d="M32.443.5c8.988 0 16.57 3.085 22.742 9.257C61.393 15.967 64.5 23.548 64.5 32.5c0 8.991-3.049 16.476-9.145 22.456-6.476 6.363-14.113 9.544-22.912 9.544-8.649 0-16.153-3.144-22.514-9.43C3.644 48.784.5 41.262.5 32.5c0-8.761 3.144-16.342 9.429-22.742C16.101 3.585 23.604.5 32.443.5zm.114 5.772c-7.276 0-13.428 2.553-18.457 7.657-5.22 5.334-7.829 11.525-7.829 18.572 0 7.086 2.59 13.22 7.77 18.398 5.181 5.182 11.352 7.771 18.514 7.771 7.123 0 13.334-2.607 18.629-7.828 5.029-4.838 7.543-10.952 7.543-18.343 0-7.276-2.553-13.465-7.656-18.571-5.104-5.104-11.276-7.656-18.514-7.656zm8.572 18.285v13.085h-3.656v15.542h-9.944V37.643h-3.656V24.557c0-.572.2-1.057.599-1.457.401-.399.887-.6 1.457-.6h13.144c.533 0 1.01.2 1.428.6.417.4.628.886.628 1.457zm-13.087-8.228c0-3.008 1.485-4.514 4.458-4.514s4.457 1.504 4.457 4.514c0 2.971-1.486 4.457-4.457 4.457s-4.458-1.486-4.458-4.457z"/></g><circle cx="32.785" cy="32.501" r="28.836" fill="none"/><path fill="currentColor" d="M32.441.5c8.951 0 16.572 3.125 22.857 9.372 3.008 3.009 5.295 6.448 6.857 10.314 1.561 3.867 2.344 7.971 2.344 12.314 0 4.381-.773 8.486-2.314 12.313-1.543 3.828-3.82 7.21-6.828 10.143-3.123 3.085-6.666 5.448-10.629 7.086-3.961 1.638-8.057 2.457-12.285 2.457s-8.276-.808-12.143-2.429c-3.866-1.618-7.333-3.961-10.4-7.027-3.067-3.066-5.4-6.524-7-10.372C1.3 40.823.5 36.767.5 32.5c0-4.229.809-8.295 2.428-12.2C4.547 16.395 6.9 12.9 9.985 9.814 16.08 3.606 23.565.5 32.441.5zm.116 5.772c-7.314 0-13.467 2.553-18.458 7.657-2.515 2.553-4.448 5.419-5.8 8.6a25.204 25.204 0 0 0-2.029 9.972c0 3.429.675 6.734 2.029 9.913 1.353 3.183 3.285 6.021 5.8 8.516 2.514 2.496 5.351 4.399 8.515 5.715a25.652 25.652 0 0 0 9.943 1.971c3.428 0 6.75-.665 9.973-1.999 3.219-1.335 6.121-3.257 8.713-5.771 4.99-4.876 7.484-10.99 7.484-18.344 0-3.543-.648-6.895-1.943-10.057-1.293-3.162-3.18-5.98-5.654-8.458-5.146-5.143-11.335-7.715-18.573-7.715zm-.401 20.915l-4.287 2.229c-.458-.951-1.019-1.619-1.685-2-.667-.38-1.286-.571-1.858-.571-2.856 0-4.286 1.885-4.286 5.657 0 1.714.362 3.084 1.085 4.113.724 1.029 1.791 1.544 3.201 1.544 1.867 0 3.181-.915 3.944-2.743l3.942 2c-.838 1.563-2 2.791-3.486 3.686-1.484.896-3.123 1.343-4.914 1.343-2.857 0-5.163-.875-6.915-2.629-1.752-1.752-2.628-4.19-2.628-7.313 0-3.048.886-5.466 2.657-7.257 1.771-1.79 4.009-2.686 6.715-2.686 3.963-.002 6.8 1.541 8.515 4.627zm18.457 0l-4.229 2.229c-.457-.951-1.02-1.619-1.686-2-.668-.38-1.307-.571-1.914-.571-2.857 0-4.287 1.885-4.287 5.657 0 1.714.363 3.084 1.086 4.113.723 1.029 1.789 1.544 3.201 1.544 1.865 0 3.18-.915 3.941-2.743l4 2c-.875 1.563-2.057 2.791-3.541 3.686a9.233 9.233 0 0 1-4.857 1.343c-2.896 0-5.209-.875-6.941-2.629-1.736-1.752-2.602-4.19-2.602-7.313 0-3.048.885-5.466 2.658-7.257 1.77-1.79 4.008-2.686 6.713-2.686 3.962-.002 6.783 1.541 8.458 4.627z"/><g transform="translate(160)"><circle cx="32.47" cy="32.736" r="29.471" fill="none"/><path fill="currentColor" d="M32.442.5c8.99 0 16.571 3.085 22.743 9.256C61.393 15.928 64.5 23.509 64.5 32.5c0 8.992-3.048 16.476-9.145 22.458C48.88 61.32 41.241 64.5 32.442 64.5c-8.686 0-16.19-3.162-22.513-9.485C3.644 48.728.5 41.225.5 32.5c0-8.762 3.144-16.343 9.429-22.743C16.1 3.586 23.604.5 32.442.5zM7.7 23.872c-.952 2.628-1.429 5.505-1.429 8.629 0 7.086 2.59 13.22 7.77 18.4 5.219 5.144 11.391 7.715 18.514 7.715 7.201 0 13.409-2.608 18.63-7.829 1.867-1.79 3.332-3.657 4.398-5.602l-12.056-5.371c-.421 2.02-1.439 3.667-3.057 4.942-1.622 1.276-3.535 2.011-5.744 2.2v4.915h-3.714v-4.915c-3.543-.036-6.782-1.312-9.714-3.827l4.4-4.457c2.094 1.942 4.476 2.913 7.143 2.913 1.104 0 2.048-.246 2.83-.743.78-.494 1.172-1.312 1.172-2.457 0-.801-.287-1.448-.858-1.943L32.9 35.127l-3.771-1.715-5.086-2.229L7.7 23.872zM32.557 6.214c-7.276 0-13.428 2.571-18.457 7.714a30.623 30.623 0 0 0-3.543 4.287L22.786 23.7c.533-1.676 1.542-3.019 3.029-4.028 1.484-1.009 3.218-1.571 5.2-1.686v-4.915h3.715v4.915c2.934.153 5.6 1.143 8 2.971l-4.172 4.286c-1.793-1.257-3.619-1.885-5.486-1.885-.991 0-1.876.191-2.656.571-.781.381-1.172 1.029-1.172 1.943 0 .267.095.533.285.8l4.057 1.83 2.8 1.257 5.144 2.285 16.397 7.314a29.51 29.51 0 0 0 .801-6.857c0-7.353-2.552-13.543-7.656-18.573-5.067-5.143-11.241-7.714-18.515-7.714z"/></g><g transform="translate(240)"><circle cx="32.564" cy="32.288" r="29.013" fill="none"/><path fill="currentColor" d="M32.443.5c8.951 0 16.531 3.105 22.742 9.315C61.393 15.987 64.5 23.548 64.5 32.5c0 8.954-3.049 16.457-9.145 22.514-6.437 6.324-14.076 9.486-22.912 9.486-8.649 0-16.153-3.143-22.514-9.43C3.644 48.786.5 41.264.5 32.501c0-8.723 3.144-16.285 9.429-22.685C16.138 3.605 23.643.5 32.443.5zm.114 5.772c-7.276 0-13.428 2.572-18.457 7.715C8.88 19.283 6.271 25.454 6.271 32.5c0 7.125 2.59 13.257 7.77 18.4 5.181 5.182 11.352 7.771 18.514 7.771 7.123 0 13.334-2.608 18.629-7.828 5.029-4.876 7.543-10.989 7.543-18.343 0-7.313-2.553-13.485-7.656-18.513-5.067-5.145-11.239-7.715-18.514-7.715zm12.058 18.684v5.486H21.358v-5.486h23.257zm0 10.287v5.483H21.358v-5.483h23.257z"/></g></g></svg>
