<svg width="66" height="66" xmlns="http://www.w3.org/2000/svg"><g fill="none" fill-rule="evenodd"><circle fill="none" cx="33.285" cy="33.285" r="29.16"/><path d="M33 13.951c4.963 0 8.451 1.744 10.463 5.5C45.61 23.207 46.55 27.634 46.55 33c0 5.232-.94 9.659-3.086 13.415-2.012 3.622-5.5 5.5-10.463 5.5-4.963 0-8.451-1.878-10.463-5.5C20.39 42.659 19.45 38.232 19.45 33c0-5.366.94-9.793 3.086-13.549 2.012-3.756 5.5-5.5 10.463-5.5M27.098 33c0 .805.134 2.28.268 4.561l7.244-13.415c.67-1.073.536-2.012-.403-2.817-.536-.134-.939-.268-1.207-.268-3.89 0-5.902 4.024-5.902 11.939M33 44.805c3.89 0 5.902-3.89 5.902-11.805 0-1.878-.134-3.756-.402-5.768l-8.049 13.95c-1.073 1.477-.805 2.55.805 3.22 0 .135.134.135.403.135 0 0 .134 0 .134.134 0 0 .268 0 .536.134H33M33 0c9.122 0 16.902 3.22 23.341 9.659C62.781 16.098 66 23.878 66 33c0 9.122-3.22 16.768-9.659 23.341C49.902 62.781 42.122 66 33 66c-9.122 0-16.768-3.22-23.341-9.659C3.219 49.768 0 42.122 0 33c0-9.122 3.22-16.902 9.659-23.341C16.232 3.219 23.878 0 33 0m0 59.963c7.378 0 13.817-2.683 19.049-7.914C57.28 46.817 59.963 40.378 59.963 33c0-7.512-2.683-13.817-7.914-19.049C46.817 8.72 40.378 6.037 33 6.037S19.183 8.72 13.951 13.95C8.72 19.183 6.037 25.488 6.037 33c0 7.378 2.683 13.817 7.914 19.049C19.183 57.28 25.622 59.963 33 59.963" fill="currentColor"/></g></svg>
