<svg xmlns="http://www.w3.org/2000/svg" width="65" height="65"><path fill="currentColor" d="M32.5.003C14.551.003 0 14.554 0 32.503c0 17.947 14.551 32.5 32.5 32.5 17.949 0 32.5-14.553 32.5-32.5 0-17.95-14.551-32.5-32.5-32.5zm0 58.906c-14.561 0-26.407-11.847-26.407-26.406 0-3.048.525-5.975 1.48-8.7l10.328 4.6a21.842 21.842 0 0 0-.429 4.312c0 12.975 9.685 16.63 15.778 16.63 3.593 0 6.702-1.16 9.137-2.86.462-.332.882-.666 1.267-1.006l-4.738-5.756c-.14.158-.284.31-.433.444-1.843 1.748-3.868 1.748-4.321 1.748-4.957 0-7.032-5.23-7.06-9.42l28.464 12.673c.034.005.061.005.09.011-4.492 8.178-13.188 13.73-23.156 13.73zM57.947 39.25L28.589 26.147c1.06-1.919 2.745-3.36 5.268-3.36 1.463 0 2.622.484 3.536 1.096.379.274.709.548.987.824l5.292-5.447c-3.555-3.056-7.596-3.602-10.239-3.602-6.21 0-10.604 2.685-13.195 6.761l-9.817-4.378C15.146 10.853 23.276 6.095 32.5 6.095c14.561 0 26.408 11.845 26.408 26.408 0 2.357-.316 4.638-.898 6.815-.024-.024-.04-.044-.063-.068z"/></svg>
