<svg version="1" xmlns="http://www.w3.org/2000/svg" width="933.333" height="933.333" viewBox="0 0 700.000000 700.000000"><path d="M381 353.5v299.2l91.8-.2c50.4-.2 92.8-.5 94.2-.8 1.4-.2 4.5-.8 6.9-1.1 7.5-1.2 25.1-7.4 35.6-12.6 35.3-17.3 58-43.1 71.3-81 2.9-8.5 6.6-22.9 7.7-30.5.4-2.2.8-5.1 1.1-6.5 2.1-12.1 2.4-46.8.5-62.5-3.3-27.3-11.7-54.2-22.5-72-11-18.2-28-34.4-44.2-42.1-6.6-3.1-8.7-5.4-5-5.4 1.4 0 17.9-10.8 21.6-14.2 4.1-3.8 14.5-16 17.7-20.8 9-13.4 16.6-33.4 19.9-52 1.5-8.3 1.9-15.3 1.8-33.5-.1-30.5-2.8-47.3-11.1-69.4-2.9-7.7-10.4-23-13.3-27.1-1.1-1.5-2-3.1-2-3.5 0-1.3-10.9-14.2-17.5-20.8-19.4-19.1-56.2-36-88-40.3-2.7-.4-6.3-.9-8-1.1-1.6-.3-38-.6-80.7-.7l-77.8-.2v299.1zm157.5-205.1c23.9 8.4 37.5 25.2 42 52.1 1.4 8.1 1.4 35.8.1 42-6.2 28.1-17.4 43.9-36.9 51.6-2.8 1.2-6.1 2.3-7.2 2.5-1.1.2-3.3.7-5 1-3.8.9-50.5 1.3-50.6.5-.1-.3-.2-34.7-.2-76.4l-.2-75.9 26.5.4c21.8.4 27.4.8 31.5 2.2zm-2.8 238.1c16.2 3.1 28.4 10.5 37.5 22.6 8.4 11.3 14.7 30.7 16.3 50.8 2.1 25.5-.2 44.6-7.1 59.8-1.3 2.8-2.4 5.4-2.4 5.7 0 .3-2.1 3.8-4.6 7.8-10.1 15.8-24 25.3-41.9 28.9-5.3 1-49.3 2.1-52 1.2-.7-.2-.9-30.6-.8-89.1 0-48.8.1-88.8.2-89 .3-1 48.9.2 54.8 1.3zM17.5 352.7c.1 163.8.4 298.3.8 298.9.4.8 14.3 1.1 46.1 1.1l45.5-.1v-106c0-58.4.1-109 .1-112.6v-6.6h27.3c31.5-.1 41.8-.4 46.7-1.5 1.9-.4 5.3-1 7.5-1.3 10.7-1.5 26.6-6.9 38.5-13.2 36.5-19.4 65.3-56 73.5-93.2 3.6-16.8 3.8-20.8 3.8-76.7.1-54.3-.3-63.8-2.9-76.4-.9-4.2-1.8-8.5-2-9.5-1.8-9.4-13.4-36.1-17.6-40.5-1-1.1-1.8-2.3-1.8-2.7 0-.3-1-1.8-2.2-3.3-1.3-1.6-3.6-4.5-5.3-6.6-8.3-10.8-24.6-23.7-39.3-31.3-9.6-5-25.2-10.5-35.7-12.5-4.4-.9-9.6-1.9-11.5-2.3-1.9-.4-41.3-.9-87.5-1.1l-84-.4v297.8zm161.8-204.2c9.6 2 17.3 6.2 24.3 13.1 6.9 6.9 10.8 14.2 12.9 24.2 1.8 8.2 2 102.2.4 111.2-3.5 18.8-20.9 36.1-40.3 40-7.6 1.5-65.7 2-66.3.5-.2-.6-.5-43.7-.6-95.8l-.2-94.7h31.6c22.7.1 33.4.5 38.2 1.5z"/></svg>